<svg xmlns="http://www.w3.org/2000/svg" viewBox="0 0 100 100">
  <path d="M28 12 C38 12, 42 18, 38 24 C34 30, 26 28, 22 34 C18 40, 26 44, 32 40 C38 36, 34 30, 28 36 C22 42, 26 48, 34 46 C42 44, 38 38, 32 42 C26 46, 30 54, 36 52 C42 50, 40 44, 34 48 C28 52, 30 60, 38 58 C44 56, 42 50, 36 54 C30 58, 34 66, 40 64 C46 62, 44 56, 38 60 C32 64, 34 72, 42 70"
        stroke="#000" stroke-width="8" stroke-linecap="round" stroke-linejoin="round" fill="none"/>
  <path d="M58 18 C64 16, 68 22, 64 28 C60 34, 54 32, 56 38 C58 44, 64 42, 66 36 C68 30, 62 28, 60 34 C58 40, 64 44, 68 40 C72 36, 66 32, 62 38 C58 44, 62 50, 68 48 C74 46, 70 40, 66 44 C62 48, 64 54, 70 54 C76 54, 74 48, 68 50 C62 52, 64 60, 70 60 C76 60, 74 54, 70 56 C66 58, 66 66, 72 66 C78 66, 76 60, 72 62"
        stroke="#000" stroke-width="7" stroke-linecap="round" stroke-linejoin="round" fill="none"/>
</svg>
